<svg xmlns="http://www.w3.org/2000/svg" viewBox="0 0 320 150" role="img" aria-label="6/3&#x66F4;&#x65B0;">
  <defs>
    <filter id="shadow" x="-20%" y="-30%" width="140%" height="170%">
      <feDropShadow dx="0" dy="7" stdDeviation="5" flood-color="#7f1d1d" flood-opacity="0.38"/>
    </filter>
    <linearGradient id="red" x1="0" x2="1" y1="0" y2="1">
      <stop offset="0" stop-color="#ff3b00"/>
      <stop offset="0.55" stop-color="#f50000"/>
      <stop offset="1" stop-color="#d50000"/>
    </linearGradient>
  </defs>
  <path d="M154 5l23 31 36-20-7 39 41-1-24 31 38 16-37 15 21 34-41-6 2 41-34-24-25 30-16-38-39 13 11-39-40-8 32-25-31-27 41-2-2-41 33 25z" fill="#ff6a00" opacity=".95" filter="url(#shadow)"/>
  <rect x="14" y="42" width="292" height="78" rx="28" fill="url(#red)" stroke="#fff" stroke-width="12" filter="url(#shadow)"/>
  <path d="M33 57c38-8 197-8 252 0" fill="none" stroke="#fff" stroke-width="5" opacity=".75" stroke-linecap="round"/>
  <text x="160" y="96" text-anchor="middle" font-family="Arial, 'Yu Gothic', 'Meiryo', sans-serif" font-size="46" font-weight="900" fill="#fff" stroke="#b40000" stroke-width="5" paint-order="stroke fill">6/3&#x66F4;&#x65B0;</text>
</svg>